<svg id="Layer_1" data-name="Layer 1" xmlns="http://www.w3.org/2000/svg" viewBox="0 0 212.45 768"><defs><style>.cls-1{fill:#fefefe;}.cls-2{fill:#b0aebe;}.cls-3{fill:#aeb6cb;}.cls-4{fill:#afb3c5;}.cls-5{fill:#afb2c5;}.cls-6{fill:#afb4c7;}.cls-7{fill:#afb4c8;}.cls-8{fill:#afb2c3;}.cls-9{fill:#b0b0c0;}.cls-10{fill:#b0b1c2;}.cls-11{fill:#b0b0c1;}.cls-12{fill:#b0b1c3;}.cls-13{fill:#b0b2c3;}.cls-14{fill:#b1b2c3;}.cls-15{fill:#b8b6c3;}.cls-16{fill:#d4d2d4;}.cls-17{fill:#c1bfc9;}.cls-18{fill:#cdcbcf;}.cls-19{fill:#d1cfd2;}.cls-20{fill:#dedbda;}.cls-21{fill:#bdbbc6;}.cls-22{fill:#dfdcdb;}.cls-23{fill:#e0dddb;}.cls-24{fill:#dbd8d8;}.cls-25{fill:#cdcacf;}.cls-26{fill:#c5c2ca;}.cls-27{fill:#d3d0d3;}.cls-28{fill:#e2dfdc;}.cls-29{fill:#dcdad9;}.cls-30{fill:#cecbcf;}.cls-31{fill:#d9dadc;}.cls-32{fill:#dcdedf;}.cls-33{fill:#d6d9dc;}.cls-34{fill:#c8c5cc;}.cls-35{fill:#d2d0d2;}.cls-36{fill:#d5d2d4;}.cls-37{fill:#d3d1d3;}.cls-38{fill:#cac8ce;}.cls-39{fill:#bebdc7;}.cls-40{fill:#d4d1d3;}.cls-41{fill:#d8d6d6;}.cls-42{fill:#e5e3de;}.cls-43{fill:#dad8d8;}.cls-44{fill:#dad7d7;}.cls-45{fill:#c5c7d0;}.cls-46{fill:#dbdbdc;}.cls-47{fill:#ddd;}.cls-48{fill:#d6d7d9;}.cls-49{fill:#d3d4d8;}.cls-50{fill:#e0dfde;}.cls-51{fill:#d1d2d7;}.cls-52{fill:#c9c7cd;}.cls-53{fill:#c9c7ce;}.cls-54{fill:#d0ced2;}.cls-55{fill:#bcb9c5;}.cls-56{fill:#c6c4cb;}.cls-57{fill:#d6d3d4;}.cls-58{fill:#d3d3d7;}.cls-59{fill:#cbcdd3;}.cls-60{fill:#d7d8da;}.cls-61{fill:#d8d8da;}.cls-62{fill:#c5c7d1;}.cls-63{fill:#c8c9d1;}.cls-64{fill:#d3d4d7;}.cls-65{fill:#ceced4;}.cls-66{fill:#d2d2d7;}.cls-67{fill:#dddddc;}.cls-68{fill:#c4c7d1;}.cls-69{fill:#cfd0d6;}.cls-70{fill:#d2d3d7;}.cls-71{fill:#c7cad2;}.cls-72{fill:#d1d3d7;}.cls-73{fill:#e0e0de;}.cls-74{fill:#cdd0d7;}.cls-75{fill:#cecfd4;}.cls-76{fill:#ccccd1;}.cls-77{fill:#c0c0cb;}.cls-78{fill:#cbcbd1;}.cls-79{fill:#dedddb;}.cls-80{fill:#c9c8cf;}.cls-81{fill:#c4c5cf;}.cls-82{fill:#d5d5d7;}.cls-83{fill:#d0d0d4;}.cls-84{fill:#dad9d9;}.cls-85{fill:#cac9d0;}.cls-86{fill:#d0ced3;}.cls-87{fill:#e2e0dd;}.cls-88{fill:#c6c6ce;}.cls-89{fill:#d9d7d8;}.cls-90{fill:#cfcfd4;}.cls-91{fill:#dadada;}.cls-92{fill:#cdcdd3;}.cls-93{fill:#d6d5d7;}</style></defs><path class="cls-1" d="M682.76,747.67q0-371.38-.1-742.78c0-4,.89-4.89,4.84-4.88,51.51.16,103,.1,154.54.1.23,2.89-3.27,1.59-4.06,4.2,4.54,3,9.32,6.19,13.88,9.65,8,6.08,15.64,12.58,21.76,20.68,5.51,7.27,7.23,15.58,6.51,24.51-.35,4.29-2.79,7.51-5.63,10.52C860.38,84.61,842.64,93.82,824.23,102c-12.36,5-24.52,10.49-36.79,15.7-5.31,1.92-10.29,4.61-15.49,6.8-8.5,3.59-15.73,9.22-23.12,14.59-17.48,12.7-15.44,32.79.71,45.4a76.87,76.87,0,0,0,16,9.14c9.54,4,19.57,6.76,29.2,10.56s20,6.19,29.79,10.15c6.41,2.39,12.63,5.23,19,7.68a62.07,62.07,0,0,1,19,12.12c9.59,8.56,10.82,25.3,3.44,38.15-5.41,9.42-13.75,15.88-21.69,22.78a138.7,138.7,0,0,1-14.94,10.77c-11.23,7-22.73,13.46-34,20.36-8.14,4.47-15.8,9.71-23.6,14.72-12.29,9.47-21.4,20.83-22.12,37.29A26.47,26.47,0,0,0,752.66,392a55,55,0,0,0,17.1,19.13C779,418,789.62,422.31,799.5,428c11.7,6.15,23.68,11.72,35.82,16.94,6.65,3.56,13.53,6.61,19.87,10.79,8.86,5.84,13.13,14.51,15.2,24.4,1.29,6.12-2.07,11.27-5.32,16.12-3.67,5.48-8.65,9.64-14,13.38a136.87,136.87,0,0,1-27.61,15.11c-14.53,5.52-28.29,12.69-42.08,19.8-10,5.34-19.48,11.35-27.26,19.77a101.67,101.67,0,0,0-14.48,21.35c-4.47,8.6-3,17.82-.83,26.87,3.05,12.68,9.94,23.62,15.78,35,10.75,16.84,9.87,46-5.12,61-9.52,11.39-19.9,21.73-33.77,27.76-8.71,5-18.27,7.81-27.52,11.43C686.43,748.43,684.54,749.21,682.76,747.67Z" transform="translate(-682.43 0)"/><path class="cls-1" d="M843.09.11c15.83,0,31.65.15,47.47-.11,3.62-.06,4.33.72,4.32,4.36q-.2,140.43-.1,280.86,0,238.92.1,477.85c0,4-.89,4.88-4.85,4.88q-100.47-.23-200.94,0c-5.42,0-7.52-1.08-6.33-6.53,1.08-2.18,3.29-2.39,5.25-3.1,10.23-3.7,21-5.91,30.86-10.54a95.8,95.8,0,0,0,30.16-17c11.55-8.55,22.13-17.84,27.28-32,3.94-10.83,5-21.44,1-32.53s-7.22-22-14.87-31.33c-4.49-5.44-6.73-12.35-8.44-19.28a59.6,59.6,0,0,1,1.87-34.32c3.48-9.84,10.53-16.86,18.31-23.28,1.36-1.11,2.74-2.19,4-3.43,13.54-8.24,27.09-16.49,42-22.15,2-.74,3.88-1.56,5.79-2.39,15-6.1,28.73-14.64,41.92-24,4.33-3.08,7.75-7.09,11.07-11.22,10.48-13,4.63-31.05-5.59-38.58-9.27-6.83-19.6-11.62-30.16-16a46.16,46.16,0,0,1-8-3.92c-10.5-5.29-21.34-9.84-31.86-15.09a24.1,24.1,0,0,1-5-2.87c-8.63-5.76-17.27-11.52-24.06-19.57a24.57,24.57,0,0,1-3.34-4.76c-6.61-12.91-6.68-25.62,1.16-38.08,5.56-9.43,14.31-15.37,23.07-21.29,12.08-6.54,24.18-13.05,35.89-20.25,8.37-5.51,17.5-9.68,25.88-15.26,14.9-9.92,24.32-23.87,30.36-40.24,2.36-6.38,1.51-13-3.08-19-7.53-9.82-17.47-16.37-28.12-21.87a175.41,175.41,0,0,0-29.15-12.22c-10.85-3.9-22.29-6.08-32.74-11.17-6.61-3.29-13.54-5.82-20.19-9a21.17,21.17,0,0,1-6.51-4.37c-3.35-3.78-7.47-6.86-9.84-11.53-4.82-9.51-4.09-17.18,3-25.22a63.45,63.45,0,0,1,11-10.44c5.08-4.55,11.87-6,17.37-9.82,12.2-6.31,25.32-10.35,37.89-15.75A171.11,171.11,0,0,0,879.26,78.9c18-14.86,17.53-36.78-1.5-52.93A270.52,270.52,0,0,0,854.68,8.48,35.84,35.84,0,0,0,849,5C847.35,3,843.68,3.44,843.09.11Z" transform="translate(-682.43 0)"/><path class="cls-2" d="M854.91,7.4c11.75,7.93,23.79,15.54,32.43,27.21,8.88,12,10,31.07-6,44.32-16.22,13.42-33.94,24.14-54,30.67-1.56-4.21,2.71-4,4.33-5.88a7.45,7.45,0,0,0,2.1-2c-1.7-.43-2.79.52-3.94,1.18a23.81,23.81,0,0,1-3.93,2.23c-1.12.28-2.35.88-3.15-.47-1.07-1.78.39-2.77,1.35-3.9,17.05-8,33.81-16.33,47.4-29.92,9.33-9.34,10.28-23.37,1.92-34.47-9.28-12.31-21.46-21.25-34.12-29.63-1.45-1-4.39-1-3.85-3.47.46-2.13,3-2,4.92-2.2.6-.06,1.15-.63,1.72-1h1.05c1.86,2,5.12,1.64,6.65,4.13-.51,1-1.82,1.11-2.34,2.09C849.11,7.7,850,11.67,853.15,8,853.61,7.42,854.11,7,854.91,7.4Z" transform="translate(-682.43 0)"/><path class="cls-3" d="M719.68,748.74c-10.63,5.4-22.33,7.66-33.47,11.59-1.14.4-2.3.76-3.45,1.14v-13.8a189.21,189.21,0,0,0,32.71-12.56,5.42,5.42,0,0,1,2.89,5.07c-.35,1.31-.92,2.39-2.52,2.4.84.54,2-.34,2.78.56C718.54,745.09,721,746.55,719.68,748.74Z" transform="translate(-682.43 0)"/><path class="cls-2" d="M827.36,205c21.7,7.37,42.91,15.56,57.93,34.38,5.41,6.79,5.6,14.26,2.7,21.9-8.86,23.37-25.67,39-47.85,49.39-3,1.4-5.74,3.28-8.6,4.94-3.15-2.85-3.86-6.46-3.2-10.49,10.56-7.3,20.75-15.1,29.71-24.36,11.55-11.95,14.61-25.66,8.12-39.19-4.63-9.67-14-14-23.08-18.22-6.22-2.86-12.65-5.23-19-7.81a2.3,2.3,0,0,1,.33-3.51c1-.66,2.22-.68,3.28-1.14.78-1.76-1.31-2.11-1.6-3.33S824.87,204.82,827.36,205Z" transform="translate(-682.43 0)"/><path class="cls-4" d="M755.4,616c2.71,9.19,7.49,17.09,13,25,6.06,8.59,8.8,19.13,11.33,29.4,4.47,18.18-1.49,33.36-13.52,46.89-5.05,5.69-10.34,10.91-17,14.65-2.24-2.62-.46-5.36-.24-8a10.32,10.32,0,0,1,1.52-3.56c.36-.51,1.28-1,1.13-1.41-.36-1-1.37,0-2.06-.33-2.86-.75-4-2.58-2.85-5.32.67-1.58.31-3.4,1.43-4.8,5.31-7.06,10.51-14.45,11.52-23.36,1.45-12.87,1-25.72-6.24-37.26,1-3.59,3.13-1.59,5-1a10.42,10.42,0,0,1,3.37,3.7c.22.33.56,1.6,1.15.23a2.93,2.93,0,0,0-.1-1.51c-.22-1.83-.8-3.23-3.06-2.74a4.64,4.64,0,0,1-1.49-.07c-5.35-2.72-4.47-7.53-4.06-12.19,1.22-3.14-.76-5.64-1.65-8.37a37,37,0,0,1-.21-7.2C752.51,617,752.67,614.84,755.4,616Z" transform="translate(-682.43 0)"/><path class="cls-2" d="M835.74,435.46c11.41,5.25,23.13,9.83,33.9,16.45,14.5,8.91,20.42,25.79,13.28,39.34a45.32,45.32,0,0,1-15.14,16.58c-13.24,8.85-26.28,18.09-41.59,23.2-1.4.5-1.54-.59-1.84-1.47,0-1.36-.28-2.56-1.69-3.17-1.35-1.12-.83-2,.38-2.72,12-5.49,23.57-11.55,33.69-20.17a41.4,41.4,0,0,0,8.81-10.38c6.6-11.08,2.4-26.12-9.4-35.09-6.63-5-14.46-7.82-21.48-12.1-.63-.83-1.27-1.65-1.9-2.47C829.62,439.35,830.37,437.39,835.74,435.46Z" transform="translate(-682.43 0)"/><path class="cls-4" d="M772.42,135c-5.24,4.63-10.86,8.88-14.09,15.39-4.05,8.16-3.1,15.75,3.09,22.87,2.18,2.51,4.54,4.86,6.82,7.29a5.31,5.31,0,0,1,.8,4.57c-4.38,2.4.23,4,.52,6-.88,2-2.6,2.92-4.59,3.46-7.83-3.22-15.13-7.23-21-13.55-12.65-13.55-12-29.62,2.27-41.46,7.69-6.39,15.82-12.25,25.16-16.1C774.87,127,772.39,131.11,772.42,135Z" transform="translate(-682.43 0)"/><path class="cls-5" d="M773.49,355.85c-.46,3.42-3.14,5.76-4.24,8.92-3.61,10.32-1.32,19.92,3,29.35a14.2,14.2,0,0,0,.21,6.22c.46,1.66.42,3.21-1.87,3.41-1-.62-1.42-1.75-2.28-2.42a1.85,1.85,0,0,1-.51-.59c-.21.18-.14.36.25.55,1.06.82,1.69,2,2.87,2.68,2.72,3.4.59,5.78-1.67,8.13a49.67,49.67,0,0,1-17.91-19.69c-5.35-10.27-3.58-21,.67-30.71,4-9,10.87-16.4,19.31-21.93a32.58,32.58,0,0,1,3.52,4.41,7.25,7.25,0,0,1-.52,3.65C773.88,350.48,773.23,353.12,773.49,355.85Z" transform="translate(-682.43 0)"/><path class="cls-6" d="M755.55,634.05c.18,4.34-2.28,9.66,4.22,11.68.44,1.12-.11,1.73-1.07,2.12-1.74-.74-3.47-2-5.24,0-8-13.85-15.68-27.82-17.84-44.1-1.49-11.3,2.83-20.65,9.14-29.39,2.76-3.83,5.78-7.47,8.69-11.19,1.55,3.07,6,4.9,3.93,9.5-1.09.48-2.3-1.1-3.31.1s0,1.84.71,2.57c1.61,1.54,1.5,3.88,2.62,5.64a63.92,63.92,0,0,0-2,35.07c-2.25.3-2.37,2.18-1.83,3.52,1,2.48-.21,4.73-.13,7.08l-.63.27c-1,0-2.14-.12-1.78,1.53a8.28,8.28,0,0,0,1.19,2.26,12.41,12.41,0,0,0,2.93,2.81Z" transform="translate(-682.43 0)"/><path class="cls-7" d="M748.18,708.43c-.11,1.58,1.5,3,0,4.78-2.42,2.81.11,3.7,2.07,4.72a1.39,1.39,0,0,1,.33,1.35,2.76,2.76,0,0,1-.86,1.22c-2.58,1.48-1.3,2.12.53,2.68-.33,2.91-.67,5.81-1,8.72-8.56,7.92-18.58,13.24-29.57,16.84.72-2-5.27-2.58-1.06-5.27.3-1.7,2-2,3-3a28.1,28.1,0,0,1,4.9-3c-2.32.43-4.09,2.1-6,3.43a2.62,2.62,0,0,1-2.86-.55c-.71-1.73-1.41-3.47-2.12-5.21C728.72,729.14,738.67,719.06,748.18,708.43Z" transform="translate(-682.43 0)"/><path class="cls-8" d="M770.3,403.62c1.75-.7,1.89-1.89,1-3.36-1.47-2.35-.78-4.33,1-6.14,7,10,16.81,16.51,26.57,23.2a4.86,4.86,0,0,1,.86,3.36,5.71,5.71,0,0,1-.38,1.26c-.29.7-.8,1.34-.6,2.18a11.27,11.27,0,0,0,1.42,1.73,2.34,2.34,0,0,1,.13,1.2A3.5,3.5,0,0,1,798.8,429c-9.82-5.69-20.65-9.57-29.54-16.9.1-2.86,3.53-5.3,1-8.49Z" transform="translate(-682.43 0)"/><path class="cls-9" d="M828.34,305.11l3.2,10.49c-11.6,7.38-23.74,13.77-35.86,20.2-2.67-1.63-1.69-3.22,0-4.82a32.9,32.9,0,0,1,4.83-3.44c.12-.68.61.27.22-.32s-.72,0-1.1.09a6.22,6.22,0,0,1-2.67.83c-1.56-.31-3.54-.27-2.39-2.86Z" transform="translate(-682.43 0)"/><path class="cls-10" d="M823,523.67c-.11.69-1.16,1.39,0,2.07.44,2-1.45,2.14-2.36,3,.34.47.52-.15.78-.12,1.29-.57,2.54-.9,3.68.27a2.19,2.19,0,0,0,1,2.12,352.75,352.75,0,0,0-40.27,20.28c-2.4,1.41-4.74,2.91-7.11,4.37-1.67-1.79-1.19-3.56,0-5.34a5.18,5.18,0,0,1,1.92-1.28c1.43-.62,2.91-1.16,3.76-2.62-.42-2-2.14-.39-3-1.11-.67-.39-1.18-.84-.73-1.7A291.21,291.21,0,0,1,823,523.67Z" transform="translate(-682.43 0)"/><path class="cls-9" d="M798.79,421.65c0-1.44,0-2.89,0-4.33,10.78,6.05,22.2,10.76,33.33,16.1,1.23.59,2.39,1.36,3.58,2-6.35,2.86-1.54,6.89-1.08,10.47A371.07,371.07,0,0,1,798.8,429a2.06,2.06,0,0,1,1.07-2c.74-.73,2.27,0,2.55-1,.18-.64-1.15-1-1.72-1.56A7.8,7.8,0,0,1,798.79,421.65Z" transform="translate(-682.43 0)"/><path class="cls-4" d="M780.77,543.63l1.17,1.23a1.78,1.78,0,0,1,.41,2c-.44,1.42-2,2-2.55,3.32a8.57,8.57,0,0,0-1,5.51c-3.23,2.93-6.31,6.05-9.71,8.77-5.51,4.39-8.85,10.24-11.7,16.49-2.66-.85-2.24-3.41-2.94-5.35-1-2.18-.19-3.16,2.09-3.14,1-.71,1.48-2.09.49-2.51-3.18-1.36-2.62-4.44-3.59-6.81C761.18,554.68,770.64,548.68,780.77,543.63Z" transform="translate(-682.43 0)"/><path class="cls-9" d="M824.05,100.77c-.75,2.06-2.3,4.62,2.12,3.41a10.53,10.53,0,0,1,5.88-.43c.17.15.33.31.49.47-.79,2.74-5.62,1.49-5.25,5.38-10.76,4.38-21.53,8.73-32.27,13.14-1.92.79-3.74,1.81-5.6,2.73-3.3,1.08-3.25-1.55-3.63-3.46a7.09,7.09,0,0,1,1.27-5.42C799.21,110.9,811.57,105.69,824.05,100.77Z" transform="translate(-682.43 0)"/><path class="cls-11" d="M825.25,212.45c-1.26.69-1.12,1.92-1.14,3.08l-29.64-10.21a2.15,2.15,0,0,1-.35-2.11c1.3-2.32,4.33.46,5.58-1.92-1.45-1.41-3.56-1.18-5.14-2.19a3.31,3.31,0,0,1-.85-1.26c-.41-1.61-.42-3.15.86-4.43,8.67,4.11,18,6.36,27,9.32,2,.64,3.86,1.5,5.78,2.26-2,2,.07,2.53,1.21,3.38,1.53,1.13,2.77,2.3.77,4.1a6.92,6.92,0,0,0-2.14-1.58l-.91-.44a11,11,0,0,1-2.1-1.35c.37.71,1.1,1.17,1.33,2A1.66,1.66,0,0,1,825.25,212.45Z" transform="translate(-682.43 0)"/><path class="cls-12" d="M794.57,202.91c0,.8-.07,1.6-.1,2.4-9.88-3.46-20-6.17-29.5-10.73.73-2,2.68-2.42,4.26-3.33a6.84,6.84,0,0,1,2.51.18,6.7,6.7,0,0,1,1.12.38c.23-.22.76.93.78-.21-.64-.37-1.31-.65-1.94-1-1.57-1.23-3.65-2.06-3.52-4.6l.06-5.46c6.29,5,14,7.13,21.14,10.56,1.71.82,3.46,1.55,5.19,2.32v5.28C793,200.1,795.09,201.5,794.57,202.91Z" transform="translate(-682.43 0)"/><path class="cls-13" d="M796.69,331.36c-1.34,1.25-2.52,2.53-1,4.44-8.2,5.78-16.58,11.35-22.19,20.05a8,8,0,0,1,0-8.51c1.24-1.74,3-3,4.14-4.8l.2-.24c-.06-.41-.18-.43-.39,0a5.38,5.38,0,0,1-2.93,1.89c-2.82-.17-3.21-2.12-3.17-4.39a248,248,0,0,1,23.26-14.49c.2,2,1.71,1.87,3.12,1.88C798.41,328.82,796.86,329.92,796.69,331.36Z" transform="translate(-682.43 0)"/><path class="cls-14" d="M787.06,116.59c1.22,2.84-2.13,6.91,2.35,8.88-5.37,3.68-11.83,5.42-17,9.51-2.62-3.63.68-7.8-1-11.51A105.71,105.71,0,0,1,787.06,116.59Z" transform="translate(-682.43 0)"/><path class="cls-15" d="M845.22,5.46c1.17-1.68,3-.88,4.52-1.21a8.78,8.78,0,0,1,5.17,3.15l-1.28,1.22C849.78,10.39,847.62,7.62,845.22,5.46Z" transform="translate(-682.43 0)"/><path class="cls-16" d="M845.22,5.46c3,.47,5.27,3,8.41,3.16.83,1.87.43,3.66-1.74,2.64C849.28,10,845.78,9.29,845.22,5.46Z" transform="translate(-682.43 0)"/><path class="cls-17" d="M829.39,102.06a5.38,5.38,0,0,1,1.1-1c1.83-1,4.27-2.26,5.34.15.91,2-2.15,2-3.29,3v-.07C831.78,103,830.09,103.29,829.39,102.06Z" transform="translate(-682.43 0)"/><path class="cls-18" d="M869.42,25.63A3.08,3.08,0,0,1,866.93,24c-.4-.62-2.3-.94-.54-2.07.93-.59,2-1.28,2.65.46a10.29,10.29,0,0,0,1.52,2.07C870.8,25.47,870.47,25.91,869.42,25.63Z" transform="translate(-682.43 0)"/><path class="cls-19" d="M829.39,102.06c1.51,0,3.06-.07,3.15,2.09a8.75,8.75,0,0,1-6.37,0Z" transform="translate(-682.43 0)"/><path class="cls-20" d="M854.74,90.35c.75,1.6-1,1.44-1.53,2-.93.92-2.52,2.09-3.25.28-.67-1.65,1.23-2,2.53-2.34A1.69,1.69,0,0,1,854.74,90.35Z" transform="translate(-682.43 0)"/><path class="cls-21" d="M881.08,38.35c.48-2.52,1.22-4.12,3.23-.88a6.53,6.53,0,0,1,1,4.05c-1,.65-1.67,0-2.28-.69A3.89,3.89,0,0,0,881.08,38.35Z" transform="translate(-682.43 0)"/><path class="cls-22" d="M870.5,77.62l4.92-3.89c.59,3-1.24,3.91-2.77,5A2.33,2.33,0,0,1,870.5,77.62Z" transform="translate(-682.43 0)"/><path class="cls-23" d="M870.5,77.62a2.24,2.24,0,0,1,2.15,1.1c-.95,1.77-2.78,3-4.14,1.66C867.36,79.27,869.46,78.35,870.5,77.62Z" transform="translate(-682.43 0)"/><path class="cls-24" d="M885.19,61.66c.47-1.95-.75-4.52,2.08-6.06,1.09,2.58-.23,4.3-1,6.12C885.88,62.14,885.53,62.1,885.19,61.66Z" transform="translate(-682.43 0)"/><path class="cls-25" d="M869.42,25.63l1.14-1.17c2,.37,2.89,2.11,1.64,3.23S870.21,26.61,869.42,25.63Z" transform="translate(-682.43 0)"/><path class="cls-26" d="M885.35,42.55a1.88,1.88,0,0,1-.45,3.3c-1.7.65-1.48-1.16-1.71-2.22A2.82,2.82,0,0,1,885.35,42.55Z" transform="translate(-682.43 0)"/><path class="cls-27" d="M854.74,90.35l-2.25,0c1-1,1.56-3.22,3.28-2.15C857.06,88.94,854.84,89.45,854.74,90.35Z" transform="translate(-682.43 0)"/><path class="cls-28" d="M885.19,61.66l1.08.06-1.85,3.42C883.65,63.25,884.21,62.39,885.19,61.66Z" transform="translate(-682.43 0)"/><path class="cls-29" d="M885.35,42.55a2.23,2.23,0,0,1-2.16,1.08c0-.33,0-.67,0-1a1.56,1.56,0,0,1,0-2.17l2.11,1.07A8.89,8.89,0,0,0,885.35,42.55Z" transform="translate(-682.43 0)"/><path class="cls-30" d="M883.18,40.45l0,2.17-2.07-4.27A1.9,1.9,0,0,1,883.18,40.45Z" transform="translate(-682.43 0)"/><path class="cls-31" d="M721.86,741.31l-3.24,2.16h-3.14c-.13-1.79,1.95-1.82,2.11-3.15l3.12-.16A1.43,1.43,0,0,1,721.86,741.31Z" transform="translate(-682.43 0)"/><path class="cls-32" d="M697.46,750.13a6.88,6.88,0,0,1-6.38,2.56C693.12,750.26,695.41,750.61,697.46,750.13Z" transform="translate(-682.43 0)"/><path class="cls-33" d="M688.46,754.56a7.18,7.18,0,0,1-1.67.48c-.73,0-1.47-.36-.85-1.18a2.67,2.67,0,0,1,1.81-.66C688.26,753.16,688.69,753.58,688.46,754.56Z" transform="translate(-682.43 0)"/><path class="cls-34" d="M881.11,251.73c1.3,1,.94,2.5,1,3.87.11,2-.28,3.85-2.14,5-.61.37-1.5.55-1.74-.3-.51-1.85-.88-3.76.65-5.4C880.63,254.55,879.58,252.22,881.11,251.73Z" transform="translate(-682.43 0)"/><path class="cls-35" d="M869.57,232.79c2.07,1.4,4.14,2.9,5,5.55a1.14,1.14,0,0,1-.28.95c-.71.75-1.58.24-1.47-.41.59-3.59-6-1.28-4.37-5.49C868.54,233.15,869,233.07,869.57,232.79Z" transform="translate(-682.43 0)"/><path class="cls-36" d="M881.11,251.73c-.31,1.3-.3,2.82-1,3.85-1,1.56-1-.13-1.21-.68-.6-1.6-1.94-3.42-.2-4.8C880,249.09,880.88,250.29,881.11,251.73Z" transform="translate(-682.43 0)"/><path class="cls-37" d="M872.61,277.24c-.19,2.06-2,2.9-3.11,4.31a2.6,2.6,0,0,1-2.11-1.1,20.68,20.68,0,0,1,4.18-6.38C872.81,274.83,871.89,276.31,872.61,277.24Z" transform="translate(-682.43 0)"/><path class="cls-38" d="M852.49,222.63c-2.87.16-4.26-1.39-6.41-2.53C849.49,218.74,851.61,218.84,852.49,222.63Z" transform="translate(-682.43 0)"/><path class="cls-39" d="M837.8,304.84a5.26,5.26,0,0,1,6.08-1.61c-.93,2.16-2.6,2.78-3.94,3.77C839.18,306.33,838.13,306,837.8,304.84Z" transform="translate(-682.43 0)"/><path class="cls-40" d="M855.76,295.34c-.13,1.7-.81,3-2.71,3-.37,0-1.06-.52-1-.79,0-1.79,1.43-2.5,2.75-3.25C855.81,293.93,856.08,294.35,855.76,295.34Z" transform="translate(-682.43 0)"/><path class="cls-28" d="M855.76,295.34l-1-1.07c.09-.15.15-.4.27-.44,1.76-.58,2.17-3.27,4.46-2.92.32,0,.87.85.77,1C859.37,293.87,857.43,294.43,855.76,295.34Z" transform="translate(-682.43 0)"/><path class="cls-41" d="M837.8,304.84a2,2,0,0,1,2.14,2.16l-1.07,1c-1.9.6-4,1.47-3.19-2.09A2.36,2.36,0,0,1,837.8,304.84Z" transform="translate(-682.43 0)"/><path class="cls-42" d="M872.61,277.24c-1.22-.76-1-2-1-3.17.51-.81,1.23-2.23,2.09-1.25C875.06,274.41,873.06,275.76,872.61,277.24Z" transform="translate(-682.43 0)"/><path class="cls-43" d="M825.25,212.45c0-.35-.06-.7-.07-1,.33-2.59,1.9-1.4,3.2-1.06a2.09,2.09,0,0,1,1,2.13Z" transform="translate(-682.43 0)"/><path class="cls-9" d="M835.68,305.94c.1,2.2,1.64,2.15,3.19,2.09a2.31,2.31,0,0,1-3.57.5C834.32,307.71,834.76,306.69,835.68,305.94Z" transform="translate(-682.43 0)"/><path class="cls-44" d="M867.39,280.45a2.15,2.15,0,0,1,2.1,1.1c-.54.82-1.34,1.29-2.2.75S867.23,281.08,867.39,280.45Z" transform="translate(-682.43 0)"/><path class="cls-45" d="M772.42,675.11c-.06,2.21-.12,4.25-2.42,4.3s-1.71-2.13-1.76-3.52c-.06-1.67-.39-4,1.9-4.17C772.62,671.52,772.17,673.92,772.42,675.11Z" transform="translate(-682.43 0)"/><path class="cls-46" d="M758.7,647.85l1.07-2.12h0c3.28-1.4,3.15,1.68,4.2,3.23,0,1.45,1.4,3.35-.66,4.19-2.41,1-1.81-1.85-2.77-2.76A15.73,15.73,0,0,1,758.7,647.85Z" transform="translate(-682.43 0)"/><path class="cls-47" d="M750.25,723.18c-1.89-.54-2.9,1.64-5,1.64-.35-3.85,3.26-4.07,5-5.85a1.35,1.35,0,0,1,1.14,1.12Z" transform="translate(-682.43 0)"/><path class="cls-48" d="M766,697.71c.36-1.85.8-3.64,3.42-4.35.2,2.5-1,4-2.23,5.54A1.41,1.41,0,0,1,766,697.71Z" transform="translate(-682.43 0)"/><path class="cls-6" d="M753.44,626.61c2.6,1.93,3.14,4.46,2.11,7.44l-.08-.06a4.83,4.83,0,0,1-2.43-3c-.13-.84,1-1.75-.15-2.55a1.64,1.64,0,0,1,.54-1.77Z" transform="translate(-682.43 0)"/><path class="cls-49" d="M751.4,720.09,750.26,719c0-.34,0-.69,0-1,1.07-.11,1.3-2.67,2.63-1.2C753.29,717.17,753.9,719.84,751.4,720.09Z" transform="translate(-682.43 0)"/><path class="cls-50" d="M766,697.71l1.18,1.19c-.37,1-.75,2.06-1.13,3.1a1.54,1.54,0,0,1-2.23,0A8,8,0,0,1,766,697.71Z" transform="translate(-682.43 0)"/><path class="cls-6" d="M764,649c-1.38-1.1-1.83-3.44-4.2-3.23C763.8,643.34,763.79,646.27,764,649Z" transform="translate(-682.43 0)"/><path class="cls-51" d="M763.84,702h2.23c-.72,1.33-1.52,2.56-3.27,3C762.24,703.59,762.93,702.76,763.84,702Z" transform="translate(-682.43 0)"/><path class="cls-52" d="M841.64,442a4,4,0,0,1,3.35,3.32,1.39,1.39,0,0,1-1.94,1.65c-1.79-.56-3.93-1.07-4-3.53C839.08,442,840.31,441.91,841.64,442Z" transform="translate(-682.43 0)"/><path class="cls-52" d="M870.51,493.88a6.4,6.4,0,0,0,1.91-3.52c.23-1,.63-2.81,2.37-1.94a2.35,2.35,0,0,1,.72,3.3,41.6,41.6,0,0,1-2.88,4.28C871.56,495.66,871.17,494.64,870.51,493.88Z" transform="translate(-682.43 0)"/><path class="cls-28" d="M861.31,506.19c-1.91,3-3.88,4.4-7.45,4.57C855.89,508,857.48,506,861.31,506.19Z" transform="translate(-682.43 0)"/><path class="cls-53" d="M825.16,528.91A7.26,7.26,0,0,0,821,530a2.34,2.34,0,0,1-2.14-1.09l4.25-3.16C825.62,525.55,826.62,526.4,825.16,528.91Z" transform="translate(-682.43 0)"/><path class="cls-27" d="M861,452.5c.57.38,1.16.73,1.71,1.14,1.49,1.11,3.82,2.56,1.91,4.34-1.69,1.58-2.65-1.08-3.67-2.29C860.84,454.63,859.84,453.55,861,452.5Z" transform="translate(-682.43 0)"/><path class="cls-54" d="M843.74,517.25c-2.39,2.57-3.22,4.94-6.26,3.84C838.23,518.63,840.14,518.06,843.74,517.25Z" transform="translate(-682.43 0)"/><path class="cls-55" d="M878.14,474c2.28,2.7,1.49,4.19-.28,6C876.13,477.75,878.07,476.24,878.14,474Z" transform="translate(-682.43 0)"/><path class="cls-56" d="M875.58,472.41c-.85-.35-1.62-.85-1.15-1.89.35-.74,1-1.62,1.92-1.3.46.15.9,1.09.92,1.69C877.3,471.89,876.58,472.4,875.58,472.41Z" transform="translate(-682.43 0)"/><path class="cls-57" d="M861,452.5c-.34,1.06,1.26,2.15,0,3.19-.82-.6-2.28-1.16-2.32-1.81C858.59,452.69,859.92,452.48,861,452.5Z" transform="translate(-682.43 0)"/><path class="cls-24" d="M870.51,493.88a1.93,1.93,0,0,1,2.12,2.12,1.26,1.26,0,0,1-2,.47C869.46,495.67,870.19,494.76,870.51,493.88Z" transform="translate(-682.43 0)"/><path class="cls-58" d="M768.18,186l4.2,4.32c.63,1.15-.45,1.43-1,2a2.24,2.24,0,0,1-2.15-1c-.8-.59-1.58-1.22-2.42-1.75-1.11-.7-2.88-1.11-2.44-2.77C765,184.33,766.87,186.13,768.18,186Z" transform="translate(-682.43 0)"/><path class="cls-49" d="M747.11,174.26c2.62,0,6.7,4.32,5.89,6.4-.56,1.42-1.65,1.07-2.41.15s-1.58-2.25-2.36-3.38C748.89,176,747.64,175.27,747.11,174.26Z" transform="translate(-682.43 0)"/><path class="cls-59" d="M761.3,135.85a7.1,7.1,0,0,1-4.21,5.91c-.15.08-1.28-1-1.19-1.34C756.54,138.11,758.11,136.68,761.3,135.85Z" transform="translate(-682.43 0)"/><path class="cls-60" d="M743.85,161c-1-1.82-.6-3.33.89-5.59C745.51,158,745,159.55,743.85,161Z" transform="translate(-682.43 0)"/><path class="cls-61" d="M747.11,174.26c.69,1,3.92,1,1.12,3.17C747.86,176.38,747.49,175.32,747.11,174.26Z" transform="translate(-682.43 0)"/><path class="cls-62" d="M756.52,381.73c.46-1.58-.8-4.4,1.72-4.2s1.32,3.09,1.45,4.79c.1,1.39.78,3.88-1.33,3.85C755.35,386.13,757.2,383.2,756.52,381.73Z" transform="translate(-682.43 0)"/><path class="cls-63" d="M778.8,342.07c-.36,3.21-3,4.07-5.32,5.27l1-3.18a7.77,7.77,0,0,1,3.15-3.25A1.36,1.36,0,0,1,778.8,342.07Z" transform="translate(-682.43 0)"/><path class="cls-61" d="M767.06,401.57c-1-.73-2.39-1.23-2.25-2.93,2.14-.91,2.94,1.29,4.42,1.82C769.34,402.48,768.23,402.07,767.06,401.57Z" transform="translate(-682.43 0)"/><path class="cls-64" d="M764,359a5.55,5.55,0,0,1-2.15,4.09c-1.36-1.6-1.25-2.87,0-4.15a11.79,11.79,0,0,1,1.67-.24Z" transform="translate(-682.43 0)"/><path class="cls-65" d="M767.06,401.57a2.42,2.42,0,0,0,2.17-1.11c1.3.73,1,2,1.07,3.16h0A3.38,3.38,0,0,1,767.06,401.57Z" transform="translate(-682.43 0)"/><path class="cls-66" d="M762.9,356.88c.5-.85,1.14-2.25,2.16-1.21,1.28,1.3-.09,2.42-1.07,3.36l0,0A2.67,2.67,0,0,1,762.9,356.88Z" transform="translate(-682.43 0)"/><path class="cls-67" d="M762.9,356.88a2.08,2.08,0,0,1,1,2.12c-.71.15-1.42,1.21-2.11,0C762.19,358.28,762.55,357.58,762.9,356.88Z" transform="translate(-682.43 0)"/><path class="cls-68" d="M745.6,606.92a4.06,4.06,0,0,1,2.47,4.1c-.11,1.25-.63,2.77-2.1,2.28-1.85-.62-2-2.59-2-4.35C744,608,743.91,606.74,745.6,606.92Z" transform="translate(-682.43 0)"/><path class="cls-69" d="M747.12,586.5c2.57,2.58-1.38,4.65.18,6.86-.62.26-1.26.8-1.84.73a1.36,1.36,0,0,1-1.15-1.91C745,590.32,745,588.06,747.12,586.5Z" transform="translate(-682.43 0)"/><path class="cls-70" d="M756.55,572.45a3.25,3.25,0,0,0-2.09,3.14c-1.09-.11-2.81.49-2.68-1.35a4,4,0,0,1,2.49-3.64C755.8,570.07,756.47,571,756.55,572.45Z" transform="translate(-682.43 0)"/><path class="cls-71" d="M753.43,626.62l0,2.11c-1.06.84-2.13.18-3.2,0a2,2,0,0,1,0-3.44C751.92,623.85,752.34,626.19,753.43,626.62Z" transform="translate(-682.43 0)"/><path class="cls-72" d="M750.25,628.75c1.06-1.71,2.13-.3,3.2,0,1.13.68.11,1.4,0,2.1a1.49,1.49,0,0,1-2.2,0A2.34,2.34,0,0,1,750.25,628.75Z" transform="translate(-682.43 0)"/><path class="cls-73" d="M751.29,630.87l2.2,0,2,3.16C752.89,634.55,752.06,632.75,751.29,630.87Z" transform="translate(-682.43 0)"/><path class="cls-74" d="M721.86,741.31l-1.15-1.15c1.82-3.85,5.55-3.81,9.93-5.59C727.94,738.83,724.62,739.67,721.86,741.31Z" transform="translate(-682.43 0)"/><path class="cls-75" d="M786,414.59c-.35,1.73-1.5,2-2.48,1.66a8.67,8.67,0,0,1-5.34-4.51c-.07-.17,1.18-1.29,1.37-1.18C781.8,411.84,784,413.27,786,414.59Z" transform="translate(-682.43 0)"/><path class="cls-76" d="M800.9,423.8c1.32,1.06,5.07-.19,3.79,3.15-.89,2.31-3.17.74-4.82,0l-.06-1C799.24,424.76,800,424.22,800.9,423.8Z" transform="translate(-682.43 0)"/><path class="cls-77" d="M800.9,423.8,799.81,426a2.21,2.21,0,0,1-2.08-1.08,19.34,19.34,0,0,1,1.06-3.17v-.05A2,2,0,0,1,800.9,423.8Z" transform="translate(-682.43 0)"/><path class="cls-78" d="M798.79,421.7c.84,1.46.62,2.56-1.06,3.17C795.83,423.05,797.62,422.48,798.79,421.7Z" transform="translate(-682.43 0)"/><path class="cls-79" d="M796.69,331.36c-1.4-1.83.43-2.86,1-4.2l2.13-1.05c2.23-.82,3-.25,2,2.1Z" transform="translate(-682.43 0)"/><path class="cls-80" d="M821,315.5c-.86,1.64-1.42,3.67-4,3,.29-2.39,1.81-3.14,4-3Z" transform="translate(-682.43 0)"/><path class="cls-13" d="M801.87,328.21c.07-1.43-.68-2.06-2-2.1,1.1-1.44,2.43-1.37,3.36-.05S802.74,327.74,801.87,328.21Z" transform="translate(-682.43 0)"/><path class="cls-37" d="M820.93,315.48c.14-1.1.44-2.11,1.83-1.89.32.06.88.76.8,1-.47,1.25-1.66.84-2.61.95Z" transform="translate(-682.43 0)"/><path class="cls-81" d="M781.91,547l0-2.11c2-.53,5.12-3.31,4.19,2.1a4.4,4.4,0,0,1-3.65.53Z" transform="translate(-682.43 0)"/><path class="cls-82" d="M798.75,537.37a4.9,4.9,0,0,1,5.52-1.56c-1.81,1.53-3.12,2.62-4.43,3.72C799,539.06,798.19,538.57,798.75,537.37Z" transform="translate(-682.43 0)"/><path class="cls-83" d="M798.75,537.37c.37.72.73,1.44,1.09,2.16-1.19.45-2.77,1.94-3.54.39S797.82,538.17,798.75,537.37Z" transform="translate(-682.43 0)"/><path class="cls-81" d="M779.8,550.17c-1.76-2.71,1.3-2.2,2.11-3.2h0a2.35,2.35,0,0,1,0,3.18Z" transform="translate(-682.43 0)"/><path class="cls-4" d="M781.91,550.16c0-1.06,0-2.12,0-3.18l4.21,0Z" transform="translate(-682.43 0)"/><path class="cls-84" d="M818.81,528.9A2.25,2.25,0,0,1,821,530c-.69.92-1.59,1.33-2.52.53C817.82,530,818.22,529.34,818.81,528.9Z" transform="translate(-682.43 0)"/><path class="cls-85" d="M821,436.51c-1.28-.71-2.81-1.54-1.34-3.15,1.15-1.26,1.47.91,2.38,1.06C822.54,435.57,821.79,436.06,821,436.51Z" transform="translate(-682.43 0)"/><path class="cls-86" d="M821,436.51c.34-.7.69-1.39,1-2.09,1,.57,2.38,1.12,1.52,2.48C822.81,438,821.82,436.73,821,436.51Z" transform="translate(-682.43 0)"/><path class="cls-70" d="M764.27,561.46c.19-.94.14-1.37.34-1.58,1.47-1.58,2.44-3.85,5-3.87.15,0,.59,1.06.42,1.31C768.78,559.28,767.46,561.3,764.27,561.46Z" transform="translate(-682.43 0)"/><path class="cls-87" d="M797.61,115.86l8.76-4.16c.83,2.17-1.65,2.53-1.27,4C802.6,115.83,800.17,120,797.61,115.86Z" transform="translate(-682.43 0)"/><path class="cls-14" d="M797.61,115.86c2.53,2.41,5-1,7.49-.11a9.78,9.78,0,0,1-7.19,3.25c-.87,0-1.77-.16-2-1.17C795.58,116.47,796.5,116.05,797.61,115.86Z" transform="translate(-682.43 0)"/><path class="cls-88" d="M794.57,202.91c-.56-1.41-6-2.81,0-4.22h0c2.06.86,4.37,1,6.33,2.12,2.15,1.36,2.41,2.62-.49,2.84C798.49,203.79,796.52,203.18,794.57,202.91Z" transform="translate(-682.43 0)"/><path class="cls-89" d="M828.38,210.34c-1.16.07-2.43-.19-3.2,1.06-.86-.06-.95-1.82-2-1.13s-1.68.35-1.85-.65c-.22-1.29.92-1.41,1.75-1.28C825,208.64,826.9,208.92,828.38,210.34Z" transform="translate(-682.43 0)"/><path class="cls-12" d="M800.9,200.8a9.93,9.93,0,0,1-6.33-2.12C796.94,198.59,799.23,198.74,800.9,200.8Z" transform="translate(-682.43 0)"/><path class="cls-90" d="M774.56,191.21c1,.2,2.42.52,1.5,1.81-1.35,1.89-2.6.33-3.73-.64A2.54,2.54,0,0,1,774.56,191.21Z" transform="translate(-682.43 0)"/><path class="cls-91" d="M774.56,191.21a2.39,2.39,0,0,1-2.23,1.17l-1-.09c.33-.66.66-1.32,1-2A2.07,2.07,0,0,1,774.56,191.21Z" transform="translate(-682.43 0)"/><path class="cls-92" d="M778.8,342.07l-1.15-1.16c.67-.83,1.67-1.48,2.38-.52C780.57,341.1,779.49,341.68,778.8,342.07Z" transform="translate(-682.43 0)"/><path class="cls-93" d="M781.06,123.21c-1.27,1.6-1.41,4.37-4.37,4-.27,0-.77-1-.65-1.16A6,6,0,0,1,781.06,123.21Z" transform="translate(-682.43 0)"/></svg>