<svg id="Layer_1" data-name="Layer 1" xmlns="http://www.w3.org/2000/svg" viewBox="0 0 211 761.36"><defs><style>.cls-1{fill:#b0aebe;}.cls-2{fill:#aeb6cb;}.cls-3{fill:#afb3c5;}.cls-4{fill:#afb2c5;}.cls-5{fill:#afb4c7;}.cls-6{fill:#afb4c8;}.cls-7{fill:#afb2c3;}.cls-8{fill:#b0b0c0;}.cls-9{fill:#b0b1c2;}.cls-10{fill:#b0b0c1;}.cls-11{fill:#b0b1c3;}.cls-12{fill:#b0b2c3;}.cls-13{fill:#b1b2c3;}.cls-14{fill:#b8b6c3;}.cls-15{fill:#d4d2d4;}.cls-16{fill:#c1bfc9;}.cls-17{fill:#cdcbcf;}.cls-18{fill:#d1cfd2;}.cls-19{fill:#dedbda;}.cls-20{fill:#bdbbc6;}.cls-21{fill:#dfdcdb;}.cls-22{fill:#e0dddb;}.cls-23{fill:#dbd8d8;}.cls-24{fill:#cdcacf;}.cls-25{fill:#c5c2ca;}.cls-26{fill:#d3d0d3;}.cls-27{fill:#e2dfdc;}.cls-28{fill:#dcdad9;}.cls-29{fill:#cecbcf;}.cls-30{fill:#d9dadc;}.cls-31{fill:#dcdedf;}.cls-32{fill:#d6d9dc;}.cls-33{fill:#c8c5cc;}.cls-34{fill:#d2d0d2;}.cls-35{fill:#d5d2d4;}.cls-36{fill:#d3d1d3;}.cls-37{fill:#cac8ce;}.cls-38{fill:#bebdc7;}.cls-39{fill:#d4d1d3;}.cls-40{fill:#d8d6d6;}.cls-41{fill:#e5e3de;}.cls-42{fill:#dad8d8;}.cls-43{fill:#dad7d7;}.cls-44{fill:#c5c7d0;}.cls-45{fill:#dbdbdc;}.cls-46{fill:#ddd;}.cls-47{fill:#d6d7d9;}.cls-48{fill:#d3d4d8;}.cls-49{fill:#e0dfde;}.cls-50{fill:#d1d2d7;}.cls-51{fill:#c9c7cd;}.cls-52{fill:#c9c7ce;}.cls-53{fill:#d0ced2;}.cls-54{fill:#bcb9c5;}.cls-55{fill:#c6c4cb;}.cls-56{fill:#d6d3d4;}.cls-57{fill:#d3d3d7;}.cls-58{fill:#cbcdd3;}.cls-59{fill:#d7d8da;}.cls-60{fill:#d8d8da;}.cls-61{fill:#c5c7d1;}.cls-62{fill:#c8c9d1;}.cls-63{fill:#d3d4d7;}.cls-64{fill:#ceced4;}.cls-65{fill:#d2d2d7;}.cls-66{fill:#dddddc;}.cls-67{fill:#c4c7d1;}.cls-68{fill:#cfd0d6;}.cls-69{fill:#d2d3d7;}.cls-70{fill:#c7cad2;}.cls-71{fill:#d1d3d7;}.cls-72{fill:#e0e0de;}.cls-73{fill:#cdd0d7;}.cls-74{fill:#cecfd4;}.cls-75{fill:#ccccd1;}.cls-76{fill:#c0c0cb;}.cls-77{fill:#cbcbd1;}.cls-78{fill:#dedddb;}.cls-79{fill:#c9c8cf;}.cls-80{fill:#c4c5cf;}.cls-81{fill:#d5d5d7;}.cls-82{fill:#d0d0d4;}.cls-83{fill:#dad9d9;}.cls-84{fill:#cac9d0;}.cls-85{fill:#d0ced3;}.cls-86{fill:#e2e0dd;}.cls-87{fill:#c6c6ce;}.cls-88{fill:#d9d7d8;}.cls-89{fill:#cfcfd4;}.cls-90{fill:#dadada;}.cls-91{fill:#cdcdd3;}.cls-92{fill:#d6d5d7;}</style></defs><path class="cls-1" d="M945.48,10.4c11.75,7.93,23.79,15.54,32.43,27.21,8.88,12,10,31.07-6,44.32-16.23,13.42-33.94,24.14-54,30.67-1.56-4.21,2.7-4,4.33-5.88a7.73,7.73,0,0,0,2.1-2c-1.7-.43-2.79.52-3.94,1.18a24.22,24.22,0,0,1-3.93,2.23c-1.12.28-2.35.88-3.16-.47-1.06-1.78.4-2.77,1.36-3.9,17-8,33.81-16.33,47.39-29.92,9.34-9.34,10.29-23.37,1.92-34.47-9.28-12.31-21.45-21.25-34.11-29.63-1.46-1-4.39-1-3.86-3.47.47-2.13,3-2,4.93-2.2.59-.06,1.14-.63,1.71-1h1.06c1.86,2,5.12,1.64,6.65,4.13-.51,1-1.82,1.11-2.34,2.09,1.71,1.37,2.62,5.34,5.75,1.68C944.17,10.42,944.67,10,945.48,10.4Z" transform="translate(-773.32 -3.11)"/><path class="cls-2" d="M810.25,751.74c-10.63,5.4-22.33,7.66-33.47,11.59-1.14.4-2.3.76-3.46,1.14v-13.8A189,189,0,0,0,806,738.11a5.44,5.44,0,0,1,2.89,5.07c-.36,1.31-.93,2.39-2.52,2.4.83.54,2-.34,2.77.56C809.1,748.09,811.58,749.55,810.25,751.74Z" transform="translate(-773.32 -3.11)"/><path class="cls-1" d="M917.93,208c21.7,7.37,42.91,15.56,57.92,34.38,5.42,6.79,5.6,14.26,2.7,21.9-8.86,23.37-25.66,39-47.84,49.39-3,1.4-5.74,3.28-8.61,4.94-3.14-2.85-3.86-6.46-3.19-10.49,10.56-7.3,20.74-15.1,29.71-24.36,11.55-11.95,14.6-25.66,8.12-39.19-4.63-9.67-14-14-23.09-18.22-6.21-2.86-12.64-5.23-19-7.81A2.3,2.3,0,0,1,915,215c1-.66,2.23-.68,3.29-1.14.78-1.76-1.32-2.11-1.61-3.33S915.43,207.82,917.93,208Z" transform="translate(-773.32 -3.11)"/><path class="cls-3" d="M846,619c2.7,9.19,7.48,17.09,13,25,6.06,8.59,8.8,19.13,11.32,29.4,4.48,18.18-1.48,33.36-13.51,46.89-5.06,5.69-10.34,10.91-17,14.65-2.24-2.62-.47-5.36-.24-8a10.13,10.13,0,0,1,1.52-3.56c.36-.51,1.27-1,1.13-1.41-.37-1-1.37,0-2.06-.33-2.87-.75-4-2.58-2.86-5.32.67-1.58.32-3.4,1.43-4.8,5.32-7.06,10.52-14.45,11.52-23.36,1.45-12.87,1-25.72-6.23-37.26,1-3.59,3.13-1.59,5-1,1.54.84,2.41,2.3,3.37,3.7.22.33.56,1.6,1.14.23a2.93,2.93,0,0,0-.1-1.51c-.22-1.83-.79-3.23-3.06-2.74a4.67,4.67,0,0,1-1.49-.07c-5.34-2.72-4.46-7.53-4.06-12.19,1.23-3.14-.75-5.64-1.65-8.37a36.17,36.17,0,0,1-.2-7.2C843.07,620,843.23,617.84,846,619Z" transform="translate(-773.32 -3.11)"/><path class="cls-1" d="M926.3,438.46c11.42,5.25,23.13,9.83,33.91,16.45,14.49,8.91,20.41,25.79,13.27,39.34a45.24,45.24,0,0,1-15.14,16.58c-13.24,8.85-26.28,18.09-41.58,23.2-1.41.5-1.54-.59-1.85-1.47,0-1.36-.28-2.56-1.69-3.17-1.34-1.12-.82-2,.39-2.72,11.95-5.49,23.57-11.55,33.69-20.17a41.61,41.61,0,0,0,8.81-10.38C962.7,485,958.51,470,946.7,461c-6.62-5-14.46-7.82-21.48-12.1-.62-.83-1.26-1.65-1.89-2.47C920.18,442.35,920.94,440.39,926.3,438.46Z" transform="translate(-773.32 -3.11)"/><path class="cls-3" d="M863,138c-5.24,4.63-10.86,8.88-14.09,15.39-4,8.16-3.1,15.75,3.08,22.87,2.18,2.51,4.55,4.86,6.82,7.29a5.32,5.32,0,0,1,.81,4.57c-4.38,2.4.22,4,.51,6-.87,2-2.59,2.92-4.58,3.46-7.83-3.22-15.13-7.23-21-13.55-12.65-13.55-12-29.62,2.27-41.46,7.68-6.39,15.82-12.25,25.16-16.1C865.43,130,863,134.11,863,138Z" transform="translate(-773.32 -3.11)"/><path class="cls-4" d="M864.06,358.85c-.46,3.42-3.14,5.76-4.25,8.92-3.61,10.32-1.31,19.92,3,29.35a14.05,14.05,0,0,0,.21,6.22c.46,1.66.42,3.21-1.88,3.41-1-.62-1.41-1.75-2.28-2.42a2,2,0,0,1-.51-.59c-.2.18-.13.36.25.55,1.07.82,1.7,2,2.88,2.68,2.72,3.4.59,5.78-1.68,8.13a49.74,49.74,0,0,1-17.91-19.69c-5.34-10.27-3.57-21,.68-30.71,4-9,10.86-16.4,19.3-21.93a33.44,33.44,0,0,1,3.53,4.41,7.37,7.37,0,0,1-.52,3.65C864.44,353.48,863.79,356.12,864.06,358.85Z" transform="translate(-773.32 -3.11)"/><path class="cls-5" d="M846.12,637.05c.18,4.34-2.29,9.66,4.21,11.68.45,1.12-.1,1.73-1.07,2.12-1.74-.74-3.47-2-5.23,0-8-13.85-15.69-27.82-17.84-44.1-1.5-11.3,2.83-20.65,9.14-29.39,2.76-3.83,5.78-7.47,8.68-11.19,1.56,3.07,6,4.9,3.94,9.5-1.1.48-2.3-1.1-3.31.1s0,1.84.71,2.57c1.61,1.54,1.5,3.88,2.62,5.64A63.92,63.92,0,0,0,846,619c-2.26.3-2.37,2.18-1.83,3.52,1,2.48-.21,4.73-.14,7.08l-.62.27c-1,0-2.15-.12-1.79,1.53a8.57,8.57,0,0,0,1.19,2.26,12.45,12.45,0,0,0,2.94,2.81Z" transform="translate(-773.32 -3.11)"/><path class="cls-6" d="M838.74,711.43c-.1,1.58,1.5,3,0,4.78-2.43,2.81.1,3.7,2.06,4.72a1.37,1.37,0,0,1,.33,1.35,2.74,2.74,0,0,1-.85,1.22c-2.59,1.48-1.31,2.12.52,2.68l-1,8.72c-8.56,7.92-18.59,13.24-29.57,16.84.72-2-5.27-2.58-1.06-5.27.3-1.7,2-2,3-3a27.74,27.74,0,0,1,4.9-3c-2.32.43-4.09,2.1-6.05,3.43a2.61,2.61,0,0,1-2.86-.55q-1.06-2.6-2.12-5.21C819.29,732.14,829.23,722.06,838.74,711.43Z" transform="translate(-773.32 -3.11)"/><path class="cls-7" d="M860.86,406.62c1.76-.7,1.89-1.89,1-3.36-1.48-2.35-.78-4.33,1-6.14,6.94,10,16.81,16.51,26.56,23.2a4.86,4.86,0,0,1,.87,3.36,5.74,5.74,0,0,1-.39,1.26c-.29.7-.79,1.34-.6,2.18a10.78,10.78,0,0,0,1.43,1.73,2.34,2.34,0,0,1,.13,1.2,3.47,3.47,0,0,1-1.47,1.95c-9.81-5.69-20.65-9.57-29.54-16.9.11-2.86,3.54-5.3,1-8.49Z" transform="translate(-773.32 -3.11)"/><path class="cls-8" d="M918.91,308.11q1.59,5.25,3.19,10.49c-11.59,7.38-23.73,13.77-35.85,20.2-2.68-1.63-1.7-3.22,0-4.82a33.45,33.45,0,0,1,4.83-3.44c.13-.68.62.27.23-.32s-.73,0-1.11.09a6.14,6.14,0,0,1-2.66.83c-1.56-.31-3.55-.27-2.39-2.86Z" transform="translate(-773.32 -3.11)"/><path class="cls-9" d="M913.61,526.67c-.11.69-1.16,1.39,0,2.07.43,2-1.45,2.14-2.36,3,.34.47.51-.15.78-.12,1.29-.57,2.54-.9,3.67.27a2.22,2.22,0,0,0,1,2.12,352.75,352.75,0,0,0-40.27,20.28c-2.4,1.41-4.75,2.91-7.12,4.37-1.67-1.79-1.18-3.56,0-5.34a5.27,5.27,0,0,1,1.92-1.28c1.44-.62,2.92-1.16,3.76-2.62-.42-2-2.14-.39-3-1.11-.66-.39-1.17-.84-.72-1.7A290.72,290.72,0,0,1,913.61,526.67Z" transform="translate(-773.32 -3.11)"/><path class="cls-8" d="M889.35,424.65c0-1.44,0-2.89,0-4.33,10.79,6.05,22.21,10.76,33.33,16.1,1.24.59,2.39,1.36,3.58,2-6.34,2.86-1.54,6.89-1.08,10.47A372.19,372.19,0,0,1,889.36,432a2.09,2.09,0,0,1,1.08-2c.74-.73,2.27,0,2.55-1,.17-.64-1.16-1-1.72-1.56A8,8,0,0,1,889.35,424.65Z" transform="translate(-773.32 -3.11)"/><path class="cls-3" d="M871.34,546.63l1.17,1.23a1.82,1.82,0,0,1,.41,2c-.45,1.42-2,2-2.55,3.32a8.58,8.58,0,0,0-1,5.51c-3.22,2.93-6.3,6.05-9.7,8.77-5.52,4.39-8.85,10.24-11.7,16.49-2.67-.85-2.24-3.41-2.94-5.35-1-2.18-.19-3.16,2.09-3.14,1-.71,1.47-2.09.49-2.51-3.18-1.36-2.63-4.44-3.6-6.81C851.75,557.68,861.21,551.68,871.34,546.63Z" transform="translate(-773.32 -3.11)"/><path class="cls-8" d="M914.62,103.77c-.75,2.06-2.31,4.62,2.12,3.41a10.52,10.52,0,0,1,5.88-.43l.49.47c-.79,2.74-5.62,1.49-5.25,5.38-10.76,4.38-21.53,8.73-32.27,13.14-1.92.79-3.74,1.81-5.61,2.73-3.3,1.08-3.25-1.55-3.63-3.46a7.18,7.18,0,0,1,1.27-5.42C889.78,113.9,902.13,108.69,914.62,103.77Z" transform="translate(-773.32 -3.11)"/><path class="cls-10" d="M915.82,215.45c-1.27.69-1.13,1.92-1.14,3.08L885,208.32a2.2,2.2,0,0,1-.35-2.11c1.31-2.32,4.34.46,5.58-1.92-1.44-1.41-3.55-1.18-5.13-2.19a3.45,3.45,0,0,1-.86-1.26c-.4-1.61-.42-3.15.87-4.43,8.66,4.11,18,6.36,27,9.32,2,.64,3.85,1.5,5.78,2.26-2,2,.07,2.53,1.2,3.38,1.53,1.13,2.78,2.3.78,4.1a7,7,0,0,0-2.15-1.58c-.31-.14-.6-.3-.9-.44a11.12,11.12,0,0,1-2.11-1.35c.37.71,1.11,1.17,1.34,2A1.66,1.66,0,0,1,915.82,215.45Z" transform="translate(-773.32 -3.11)"/><path class="cls-11" d="M885.14,205.91c0,.8-.07,1.6-.11,2.4-9.87-3.46-20-6.17-29.49-10.73.73-2,2.68-2.42,4.26-3.33a7.35,7.35,0,0,1,3.63.56c.23-.22.76.93.78-.21-.65-.37-1.31-.65-1.94-1-1.58-1.23-3.66-2.06-3.52-4.6,0-1.82,0-3.64,0-5.46,6.3,5,14.05,7.13,21.15,10.56,1.7.82,3.46,1.55,5.19,2.32,0,1.76,0,3.52,0,5.28C883.52,203.1,885.66,204.5,885.14,205.91Z" transform="translate(-773.32 -3.11)"/><path class="cls-12" d="M887.26,334.36c-1.34,1.25-2.53,2.53-1,4.44-8.2,5.78-16.59,11.35-22.19,20.05a7.93,7.93,0,0,1,0-8.51c1.24-1.74,3-3,4.15-4.8l.2-.24c-.06-.41-.18-.43-.39,0-.88.83-1.67,1.73-2.93,1.89-2.83-.17-3.21-2.12-3.18-4.39a249.45,249.45,0,0,1,23.27-14.49c.2,2,1.71,1.87,3.12,1.88C889,331.82,887.43,332.92,887.26,334.36Z" transform="translate(-773.32 -3.11)"/><path class="cls-13" d="M877.62,119.59c1.23,2.84-2.12,6.91,2.36,8.88-5.38,3.68-11.83,5.42-17,9.51-2.63-3.63.68-7.8-1-11.51A106.06,106.06,0,0,1,877.62,119.59Z" transform="translate(-773.32 -3.11)"/><path class="cls-14" d="M935.79,8.46c1.17-1.68,3-.88,4.52-1.21a8.81,8.81,0,0,1,5.17,3.15l-1.28,1.22C940.35,13.39,938.18,10.62,935.79,8.46Z" transform="translate(-773.32 -3.11)"/><path class="cls-15" d="M935.79,8.46c3,.47,5.27,3,8.41,3.16.83,1.87.43,3.66-1.74,2.64C939.84,13,936.34,12.29,935.79,8.46Z" transform="translate(-773.32 -3.11)"/><path class="cls-16" d="M920,105.06a5.65,5.65,0,0,1,1.1-1c1.84-1,4.27-2.26,5.35.15.9,2-2.15,2-3.29,3v-.07C922.35,106,920.65,106.29,920,105.06Z" transform="translate(-773.32 -3.11)"/><path class="cls-17" d="M960,28.63a3.08,3.08,0,0,1-2.5-1.63c-.4-.62-2.29-.94-.54-2.07.93-.59,2-1.28,2.66.46a9.92,9.92,0,0,0,1.52,2.07C961.37,28.47,961,28.91,960,28.63Z" transform="translate(-773.32 -3.11)"/><path class="cls-18" d="M920,105.06c1.52,0,3.07-.07,3.16,2.09a8.75,8.75,0,0,1-6.37,0Z" transform="translate(-773.32 -3.11)"/><path class="cls-19" d="M945.31,93.35c.74,1.6-1,1.44-1.54,2-.93.92-2.51,2.09-3.25.28-.67-1.65,1.24-2,2.54-2.34A1.69,1.69,0,0,1,945.31,93.35Z" transform="translate(-773.32 -3.11)"/><path class="cls-20" d="M971.64,41.35c.49-2.52,1.23-4.12,3.24-.88a6.53,6.53,0,0,1,1,4.05c-1,.65-1.67,0-2.28-.69A3.9,3.9,0,0,0,971.64,41.35Z" transform="translate(-773.32 -3.11)"/><path class="cls-21" d="M961.06,80.62,966,76.73c.58,3-1.25,3.91-2.78,5A2.35,2.35,0,0,1,961.06,80.62Z" transform="translate(-773.32 -3.11)"/><path class="cls-22" d="M961.06,80.62a2.24,2.24,0,0,1,2.15,1.1c-.94,1.77-2.77,3-4.14,1.66C957.93,82.27,960,81.35,961.06,80.62Z" transform="translate(-773.32 -3.11)"/><path class="cls-23" d="M975.76,64.66c.47-1.95-.76-4.52,2.07-6.06,1.1,2.58-.23,4.3-1,6.12C976.45,65.14,976.09,65.1,975.76,64.66Z" transform="translate(-773.32 -3.11)"/><path class="cls-24" d="M960,28.63l1.14-1.17c2,.37,2.88,2.11,1.64,3.23S960.77,29.61,960,28.63Z" transform="translate(-773.32 -3.11)"/><path class="cls-25" d="M975.92,45.55a1.88,1.88,0,0,1-.45,3.3c-1.7.65-1.48-1.16-1.71-2.22A2.8,2.8,0,0,1,975.92,45.55Z" transform="translate(-773.32 -3.11)"/><path class="cls-26" d="M945.31,93.35l-2.25,0c1-1,1.56-3.22,3.28-2.15C947.62,91.94,945.4,92.45,945.31,93.35Z" transform="translate(-773.32 -3.11)"/><path class="cls-27" d="M975.76,64.66l1.07.06L975,68.14C974.22,66.25,974.78,65.39,975.76,64.66Z" transform="translate(-773.32 -3.11)"/><path class="cls-28" d="M975.92,45.55a2.23,2.23,0,0,1-2.16,1.08c0-.33,0-.67,0-1a1.58,1.58,0,0,1,0-2.17l2.12,1.07A8.89,8.89,0,0,0,975.92,45.55Z" transform="translate(-773.32 -3.11)"/><path class="cls-29" d="M973.74,43.45l0,2.17-2.07-4.27A1.9,1.9,0,0,1,973.74,43.45Z" transform="translate(-773.32 -3.11)"/><path class="cls-30" d="M812.43,744.31l-3.24,2.16h-3.14c-.14-1.79,1.94-1.82,2.11-3.15l3.11-.16A1.43,1.43,0,0,1,812.43,744.31Z" transform="translate(-773.32 -3.11)"/><path class="cls-31" d="M788,753.13a6.86,6.86,0,0,1-6.37,2.56C783.69,753.26,786,753.61,788,753.13Z" transform="translate(-773.32 -3.11)"/><path class="cls-32" d="M779,757.56a7,7,0,0,1-1.67.48c-.73,0-1.47-.36-.84-1.18a2.64,2.64,0,0,1,1.8-.66C778.83,756.16,779.26,756.58,779,757.56Z" transform="translate(-773.32 -3.11)"/><path class="cls-33" d="M971.67,254.73c1.31,1,1,2.5,1,3.87.11,2-.28,3.85-2.14,5-.6.37-1.5.55-1.73-.3-.51-1.85-.88-3.76.64-5.4C971.19,257.55,970.14,255.22,971.67,254.73Z" transform="translate(-773.32 -3.11)"/><path class="cls-34" d="M960.14,235.79c2.07,1.4,4.14,2.9,5,5.55a1.17,1.17,0,0,1-.28.95c-.71.75-1.58.24-1.47-.41.58-3.59-6-1.28-4.37-5.49C959.11,236.15,959.6,236.07,960.14,235.79Z" transform="translate(-773.32 -3.11)"/><path class="cls-35" d="M971.67,254.73c-.3,1.3-.29,2.82-1,3.85-1,1.56-1-.13-1.22-.68-.6-1.6-1.93-3.42-.2-4.8C970.54,252.09,971.44,253.29,971.67,254.73Z" transform="translate(-773.32 -3.11)"/><path class="cls-36" d="M963.18,280.24c-.19,2.06-2,2.9-3.12,4.31a2.63,2.63,0,0,1-2.11-1.1,20.71,20.71,0,0,1,4.19-6.38C963.38,277.83,962.46,279.31,963.18,280.24Z" transform="translate(-773.32 -3.11)"/><path class="cls-37" d="M943.05,225.63c-2.86.16-4.25-1.39-6.41-2.53C940.06,221.74,942.17,221.84,943.05,225.63Z" transform="translate(-773.32 -3.11)"/><path class="cls-38" d="M928.37,307.84a5.25,5.25,0,0,1,6.08-1.61c-.94,2.16-2.61,2.78-3.94,3.77C929.75,309.33,928.7,309,928.37,307.84Z" transform="translate(-773.32 -3.11)"/><path class="cls-39" d="M946.33,298.34c-.14,1.7-.81,3-2.72,3-.36,0-1.05-.52-1-.79,0-1.79,1.43-2.5,2.74-3.25C946.37,296.93,946.64,297.35,946.33,298.34Z" transform="translate(-773.32 -3.11)"/><path class="cls-27" d="M946.33,298.34l-1-1.07c.09-.15.15-.4.28-.44,1.75-.58,2.16-3.27,4.45-2.92.32,0,.87.85.78,1C949.93,296.87,948,297.43,946.33,298.34Z" transform="translate(-773.32 -3.11)"/><path class="cls-40" d="M928.37,307.84a2,2,0,0,1,2.14,2.16l-1.07,1c-1.9.6-4,1.47-3.19-2.09A2.36,2.36,0,0,1,928.37,307.84Z" transform="translate(-773.32 -3.11)"/><path class="cls-41" d="M963.18,280.24c-1.22-.76-1-2-1-3.17.5-.81,1.22-2.23,2.09-1.25C965.63,277.41,963.62,278.76,963.18,280.24Z" transform="translate(-773.32 -3.11)"/><path class="cls-42" d="M915.82,215.45c0-.35-.06-.7-.07-1,.33-2.59,1.9-1.4,3.19-1.06a2.09,2.09,0,0,1,1,2.13Z" transform="translate(-773.32 -3.11)"/><path class="cls-8" d="M926.25,308.94c.09,2.2,1.64,2.15,3.19,2.09a2.32,2.32,0,0,1-3.58.5C924.88,310.71,925.33,309.69,926.25,308.94Z" transform="translate(-773.32 -3.11)"/><path class="cls-43" d="M958,283.45a2.17,2.17,0,0,1,2.11,1.1c-.55.82-1.34,1.29-2.21.75S957.79,284.08,958,283.45Z" transform="translate(-773.32 -3.11)"/><path class="cls-44" d="M863,678.11c-.05,2.21-.11,4.25-2.41,4.3s-1.71-2.13-1.76-3.52c-.06-1.67-.39-4,1.89-4.17C863.19,674.52,862.74,676.92,863,678.11Z" transform="translate(-773.32 -3.11)"/><path class="cls-45" d="M849.26,650.85c.36-.7.72-1.41,1.07-2.12h0c3.28-1.4,3.15,1.68,4.19,3.23,0,1.45,1.41,3.35-.65,4.19-2.42,1-1.81-1.85-2.78-2.76A16.36,16.36,0,0,1,849.26,650.85Z" transform="translate(-773.32 -3.11)"/><path class="cls-46" d="M840.81,726.18c-1.88-.54-2.89,1.64-4.95,1.64-.36-3.85,3.25-4.07,5-5.85a1.36,1.36,0,0,1,1.15,1.12Z" transform="translate(-773.32 -3.11)"/><path class="cls-47" d="M856.59,700.71c.35-1.85.8-3.64,3.42-4.35.19,2.5-1,4-2.24,5.54A1.4,1.4,0,0,1,856.59,700.71Z" transform="translate(-773.32 -3.11)"/><path class="cls-5" d="M844,629.61c2.61,1.93,3.15,4.46,2.12,7.44L846,637a4.89,4.89,0,0,1-2.43-3c-.13-.84,1-1.75-.14-2.55a1.64,1.64,0,0,1,.53-1.77Z" transform="translate(-773.32 -3.11)"/><path class="cls-48" d="M842,723.09,840.82,722c0-.34,0-.69,0-1,1.08-.11,1.31-2.67,2.64-1.2C843.85,720.17,844.46,722.84,842,723.09Z" transform="translate(-773.32 -3.11)"/><path class="cls-49" d="M856.59,700.71l1.18,1.19-1.14,3.1a1.53,1.53,0,0,1-2.22,0A8,8,0,0,1,856.59,700.71Z" transform="translate(-773.32 -3.11)"/><path class="cls-5" d="M854.52,652c-1.38-1.1-1.82-3.44-4.19-3.23C854.37,646.34,854.35,649.27,854.52,652Z" transform="translate(-773.32 -3.11)"/><path class="cls-50" d="M854.41,705h2.22c-.71,1.33-1.52,2.56-3.27,3C852.81,706.59,853.5,705.76,854.41,705Z" transform="translate(-773.32 -3.11)"/><path class="cls-51" d="M932.2,445a4.05,4.05,0,0,1,3.36,3.32,1.4,1.4,0,0,1-1.95,1.65c-1.78-.56-3.92-1.07-4-3.53C929.64,445,930.88,444.91,932.2,445Z" transform="translate(-773.32 -3.11)"/><path class="cls-51" d="M961.08,496.88a6.38,6.38,0,0,0,1.9-3.52c.24-1,.63-2.81,2.38-1.94a2.35,2.35,0,0,1,.71,3.3,38.6,38.6,0,0,1-2.88,4.28C962.13,498.66,961.73,497.64,961.08,496.88Z" transform="translate(-773.32 -3.11)"/><path class="cls-27" d="M951.88,509.19c-1.92,3-3.88,4.4-7.45,4.57C946.45,511,948,509,951.88,509.19Z" transform="translate(-773.32 -3.11)"/><path class="cls-52" d="M915.72,531.91a7.26,7.26,0,0,0-4.21,1.08,2.32,2.32,0,0,1-2.13-1.09l4.25-3.16C916.19,528.55,917.19,529.4,915.72,531.91Z" transform="translate(-773.32 -3.11)"/><path class="cls-26" d="M951.59,455.5c.57.38,1.16.73,1.7,1.14,1.5,1.11,3.83,2.56,1.92,4.34-1.69,1.58-2.66-1.08-3.68-2.29C951.4,457.63,950.41,456.55,951.59,455.5Z" transform="translate(-773.32 -3.11)"/><path class="cls-53" d="M934.31,520.25c-2.4,2.57-3.23,4.94-6.26,3.84C928.79,521.63,930.7,521.06,934.31,520.25Z" transform="translate(-773.32 -3.11)"/><path class="cls-54" d="M968.71,477c2.28,2.7,1.48,4.19-.28,6C966.69,480.75,968.63,479.24,968.71,477Z" transform="translate(-773.32 -3.11)"/><path class="cls-55" d="M966.15,475.41c-.85-.35-1.63-.85-1.15-1.89.34-.74,1-1.62,1.92-1.3.46.15.89,1.09.91,1.69C967.87,474.89,967.15,475.4,966.15,475.41Z" transform="translate(-773.32 -3.11)"/><path class="cls-56" d="M951.59,455.5c-.34,1.06,1.26,2.15-.06,3.19-.81-.6-2.27-1.16-2.31-1.81C949.16,455.69,950.49,455.48,951.59,455.5Z" transform="translate(-773.32 -3.11)"/><path class="cls-23" d="M961.08,496.88a1.92,1.92,0,0,1,2.11,2.12,1.26,1.26,0,0,1-2,.47C960,498.67,960.75,497.76,961.08,496.88Z" transform="translate(-773.32 -3.11)"/><path class="cls-57" d="M858.75,189l4.19,4.32c.63,1.15-.44,1.43-1,2a2.22,2.22,0,0,1-2.14-1c-.81-.59-1.58-1.22-2.42-1.75-1.11-.7-2.89-1.11-2.45-2.77C855.57,187.33,857.44,189.13,858.75,189Z" transform="translate(-773.32 -3.11)"/><path class="cls-48" d="M837.68,177.26c2.61,0,6.69,4.32,5.88,6.4-.55,1.42-1.64,1.07-2.41.15s-1.57-2.25-2.35-3.38C839.46,179,838.21,178.27,837.68,177.26Z" transform="translate(-773.32 -3.11)"/><path class="cls-58" d="M851.87,138.85a7.1,7.1,0,0,1-4.21,5.91c-.15.08-1.28-1-1.19-1.34C847.1,141.11,848.68,139.68,851.87,138.85Z" transform="translate(-773.32 -3.11)"/><path class="cls-59" d="M834.42,164c-1-1.82-.6-3.33.89-5.59C836.08,161,835.61,162.55,834.42,164Z" transform="translate(-773.32 -3.11)"/><path class="cls-60" d="M837.68,177.26c.68,1,3.92,1,1.12,3.17C838.43,179.38,838.05,178.32,837.68,177.26Z" transform="translate(-773.32 -3.11)"/><path class="cls-61" d="M847.08,384.73c.47-1.58-.8-4.4,1.72-4.2s1.33,3.09,1.46,4.79c.1,1.39.78,3.88-1.33,3.85C845.91,389.13,847.77,386.2,847.08,384.73Z" transform="translate(-773.32 -3.11)"/><path class="cls-62" d="M869.37,345.07c-.36,3.21-3,4.07-5.33,5.27.35-1.06.69-2.12,1-3.18a7.77,7.77,0,0,1,3.15-3.25A1.37,1.37,0,0,1,869.37,345.07Z" transform="translate(-773.32 -3.11)"/><path class="cls-60" d="M857.63,404.57c-1-.73-2.39-1.23-2.25-2.93,2.14-.91,2.93,1.29,4.41,1.82C859.9,405.48,858.79,405.07,857.63,404.57Z" transform="translate(-773.32 -3.11)"/><path class="cls-63" d="M854.56,362a5.56,5.56,0,0,1-2.16,4.09c-1.36-1.6-1.25-2.87,0-4.15a11.92,11.92,0,0,1,1.68-.24Z" transform="translate(-773.32 -3.11)"/><path class="cls-64" d="M857.63,404.57a2.41,2.41,0,0,0,2.16-1.11c1.3.73,1.05,2,1.08,3.16h0A3.37,3.37,0,0,1,857.63,404.57Z" transform="translate(-773.32 -3.11)"/><path class="cls-65" d="M853.47,359.88c.5-.85,1.13-2.25,2.15-1.21,1.29,1.3-.08,2.42-1.06,3.36l-.06,0A2.66,2.66,0,0,1,853.47,359.88Z" transform="translate(-773.32 -3.11)"/><path class="cls-66" d="M853.47,359.88a2.09,2.09,0,0,1,1,2.12c-.7.15-1.41,1.21-2.11,0Z" transform="translate(-773.32 -3.11)"/><path class="cls-67" d="M836.16,609.92a4.08,4.08,0,0,1,2.48,4.1c-.12,1.25-.63,2.77-2.1,2.28-1.85-.62-2-2.59-2-4.35C834.56,611,834.48,609.74,836.16,609.92Z" transform="translate(-773.32 -3.11)"/><path class="cls-68" d="M837.69,589.5c2.56,2.58-1.39,4.65.17,6.86-.61.26-1.26.8-1.83.73a1.36,1.36,0,0,1-1.16-1.91C835.61,593.32,835.6,591.06,837.69,589.5Z" transform="translate(-773.32 -3.11)"/><path class="cls-69" d="M847.12,575.45a3.22,3.22,0,0,0-2.09,3.14c-1.09-.11-2.81.49-2.69-1.35a4,4,0,0,1,2.5-3.64C846.36,573.07,847,574,847.12,575.45Z" transform="translate(-773.32 -3.11)"/><path class="cls-70" d="M844,629.62l0,2.11c-1.06.84-2.13.18-3.2,0a2,2,0,0,1,0-3.44C842.49,626.85,842.91,629.19,844,629.62Z" transform="translate(-773.32 -3.11)"/><path class="cls-71" d="M840.82,631.75c1.06-1.71,2.13-.3,3.2,0,1.13.68.11,1.4,0,2.1a1.48,1.48,0,0,1-2.19,0A2.29,2.29,0,0,1,840.82,631.75Z" transform="translate(-773.32 -3.11)"/><path class="cls-72" d="M841.86,633.87l2.19,0,2,3.16C843.46,637.55,842.63,635.75,841.86,633.87Z" transform="translate(-773.32 -3.11)"/><path class="cls-73" d="M812.43,744.31l-1.16-1.15c1.83-3.85,5.56-3.81,9.93-5.59C818.51,741.83,815.18,742.67,812.43,744.31Z" transform="translate(-773.32 -3.11)"/><path class="cls-74" d="M876.58,417.59c-.35,1.73-1.5,2-2.48,1.66a8.67,8.67,0,0,1-5.34-4.51c-.08-.17,1.18-1.29,1.36-1.18C872.36,414.84,874.52,416.27,876.58,417.59Z" transform="translate(-773.32 -3.11)"/><path class="cls-75" d="M891.46,426.8c1.33,1.06,5.08-.19,3.79,3.15-.89,2.31-3.16.74-4.81,0,0-.35-.05-.69-.07-1C889.81,427.76,890.51,427.22,891.46,426.8Z" transform="translate(-773.32 -3.11)"/><path class="cls-76" d="M891.46,426.8,890.37,429a2.23,2.23,0,0,1-2.08-1.08,19.38,19.38,0,0,1,1.07-3.17v-.05A2,2,0,0,1,891.46,426.8Z" transform="translate(-773.32 -3.11)"/><path class="cls-77" d="M889.36,424.7c.84,1.46.61,2.56-1.07,3.17C886.4,426.05,888.19,425.48,889.36,424.7Z" transform="translate(-773.32 -3.11)"/><path class="cls-78" d="M887.26,334.36c-1.4-1.83.42-2.86,1-4.2l2.13-1.05c2.23-.82,3-.25,2,2.1Z" transform="translate(-773.32 -3.11)"/><path class="cls-79" d="M911.51,318.5c-.85,1.64-1.41,3.67-4,3,.3-2.39,1.82-3.14,4-3Z" transform="translate(-773.32 -3.11)"/><path class="cls-12" d="M892.44,331.21c.06-1.43-.69-2.06-2-2.1,1.1-1.44,2.43-1.37,3.35-.05S893.31,330.74,892.44,331.21Z" transform="translate(-773.32 -3.11)"/><path class="cls-36" d="M911.49,318.48c.14-1.1.44-2.11,1.83-1.89.33.06.89.76.81,1-.48,1.25-1.66.84-2.62.95Z" transform="translate(-773.32 -3.11)"/><path class="cls-80" d="M872.47,550l0-2.11c2-.53,5.12-3.31,4.19,2.1a4.37,4.37,0,0,1-3.64.53Z" transform="translate(-773.32 -3.11)"/><path class="cls-81" d="M889.32,540.37a4.9,4.9,0,0,1,5.52-1.56l-4.43,3.72C889.57,542.06,888.75,541.57,889.32,540.37Z" transform="translate(-773.32 -3.11)"/><path class="cls-82" d="M889.32,540.37l1.09,2.16c-1.19.45-2.78,1.94-3.54.39S888.39,541.17,889.32,540.37Z" transform="translate(-773.32 -3.11)"/><path class="cls-80" d="M870.37,553.17c-1.76-2.71,1.3-2.2,2.1-3.2h0a2.35,2.35,0,0,1,0,3.18Z" transform="translate(-773.32 -3.11)"/><path class="cls-3" d="M872.48,553.16V550l4.21,0Z" transform="translate(-773.32 -3.11)"/><path class="cls-83" d="M909.38,531.9a2.24,2.24,0,0,1,2.13,1.09c-.69.92-1.58,1.33-2.51.53C908.38,533,908.78,532.34,909.38,531.9Z" transform="translate(-773.32 -3.11)"/><path class="cls-84" d="M911.52,439.51c-1.27-.71-2.8-1.54-1.34-3.15,1.16-1.26,1.47.91,2.38,1.06C913.11,438.57,912.36,439.06,911.52,439.51Z" transform="translate(-773.32 -3.11)"/><path class="cls-85" d="M911.52,439.51c.35-.7.7-1.39,1-2.09,1,.57,2.39,1.12,1.53,2.48C913.38,441,912.39,439.73,911.52,439.51Z" transform="translate(-773.32 -3.11)"/><path class="cls-69" d="M854.84,564.46c.18-.94.14-1.37.33-1.58,1.47-1.58,2.45-3.85,5.05-3.87.15,0,.59,1.06.43,1.31C859.35,562.28,858,564.3,854.84,564.46Z" transform="translate(-773.32 -3.11)"/><path class="cls-86" d="M888.17,118.86l8.76-4.16c.83,2.17-1.64,2.53-1.27,4C893.17,118.83,890.73,123,888.17,118.86Z" transform="translate(-773.32 -3.11)"/><path class="cls-13" d="M888.17,118.86c2.53,2.41,5-1,7.49-.11a9.74,9.74,0,0,1-7.18,3.25c-.88,0-1.78-.16-2-1.17C886.14,119.47,887.07,119.05,888.17,118.86Z" transform="translate(-773.32 -3.11)"/><path class="cls-87" d="M885.14,205.91c-.57-1.41-6-2.81,0-4.22h0c2.06.86,4.37,1,6.33,2.12,2.16,1.36,2.41,2.62-.49,2.84C889.06,206.79,887.09,206.18,885.14,205.91Z" transform="translate(-773.32 -3.11)"/><path class="cls-88" d="M918.94,213.34c-1.15.07-2.42-.19-3.19,1.06-.87-.06-1-1.82-2-1.13s-1.68.35-1.84-.65c-.22-1.29.91-1.41,1.74-1.28C915.53,211.64,917.46,211.92,918.94,213.34Z" transform="translate(-773.32 -3.11)"/><path class="cls-11" d="M891.46,203.8a10,10,0,0,1-6.33-2.12C887.51,201.59,889.8,201.74,891.46,203.8Z" transform="translate(-773.32 -3.11)"/><path class="cls-89" d="M865.13,194.21c1,.2,2.42.52,1.5,1.81-1.35,1.89-2.6.33-3.74-.64A2.56,2.56,0,0,1,865.13,194.21Z" transform="translate(-773.32 -3.11)"/><path class="cls-90" d="M865.13,194.21a2.4,2.4,0,0,1-2.23,1.17l-1-.09c.34-.66.67-1.32,1-2A2.09,2.09,0,0,1,865.13,194.21Z" transform="translate(-773.32 -3.11)"/><path class="cls-91" d="M869.37,345.07c-.39-.38-.77-.77-1.15-1.16.67-.83,1.66-1.48,2.38-.52C871.14,344.1,870.05,344.68,869.37,345.07Z" transform="translate(-773.32 -3.11)"/><path class="cls-92" d="M871.63,126.21c-1.27,1.6-1.42,4.37-4.37,4-.28,0-.78-1-.66-1.16A6,6,0,0,1,871.63,126.21Z" transform="translate(-773.32 -3.11)"/></svg>